<svg width="76" height="66" viewBox="0 0 76 66" fill="none" xmlns="http://www.w3.org/2000/svg">
<path d="M17.3047 55.4348H53.1743" stroke="#1C1F35" stroke-width="2" stroke-linecap="round" stroke-linejoin="round"/>
<path d="M34.333 40.4766L49.855 31.1317" stroke="#1C1F35" stroke-width="2" stroke-linecap="round" stroke-linejoin="round"/>
<path d="M9.69531 37.8877L15.7105 43.9029" stroke="#1C1F35" stroke-width="2" stroke-linecap="round" stroke-linejoin="round"/>
<path d="M1 35.7139L7.01521 41.7291" stroke="#1C1F35" stroke-width="2" stroke-linecap="round" stroke-linejoin="round"/>
<path d="M15.7687 35.4434L25.2262 44.5155C26.4873 45.7266 28.0962 46.4883 29.8137 46.6874C31.5313 46.8865 33.2657 46.5124 34.759 45.6206L72.7396 23.0045L68.0735 17.1449C66.8598 15.6262 65.1558 14.6023 63.2695 14.2582C61.3832 13.9141 59.439 14.2726 57.7882 15.2688L46.6499 21.9765L31.5981 16.8365L27.4589 18.6612C27.1492 18.7971 26.8779 19.0108 26.6701 19.2824C26.4622 19.554 26.3244 19.8749 26.2694 20.2154C26.2144 20.556 26.244 20.9052 26.3554 21.2309C26.4669 21.5567 26.6565 21.8484 26.907 22.0793L34.6085 29.1725L27.5843 33.2845L20.5602 30.2005L16.3457 32.0509C16.0391 32.1859 15.7701 32.397 15.5632 32.6652C15.3563 32.9335 15.2179 33.2503 15.1606 33.5871C15.1034 33.9239 15.129 34.27 15.2351 34.5941C15.3413 34.9183 15.5247 35.2101 15.7687 35.4434V35.4434Z" stroke="#1C1F35" stroke-width="2" stroke-linecap="round" stroke-linejoin="round"/>
<path d="M68.9352 18.4781C62.9052 23.2141 56.9528 23.8094 52.6309 18.4781L56.0268 16.2707C60.2468 13.5277 65.8664 14.4886 68.9352 18.4781Z" fill="#FFD550" stroke="#1C1F35" stroke-width="2"/>
</svg>
